<svg width="50" height="64" viewBox="0 0 50 64" fill="none" xmlns="http://www.w3.org/2000/svg">
<g opacity="0.1">
<path d="M11.8142 63.9319H16.5708C17.1903 63.9319 17.677 63.4468 17.677 62.8296V52.0484C17.677 48.0137 20.9514 44.7507 25 44.7507C26.9469 44.7507 28.7832 45.5223 30.1771 46.8892C31.5487 48.2782 32.323 50.1082 32.323 52.0484V62.8296C32.323 63.4468 32.8098 63.9319 33.4292 63.9319H38.1859C44.6903 63.9319 50 58.6405 50 52.1586V22.6371C50 22.3286 49.8673 22.0199 49.6461 21.8214L25.7523 0.281176C25.3319 -0.0937252 24.6682 -0.0937252 24.2479 0.281176L0.353929 21.8214C0.132739 22.0199 0 22.3285 0 22.6371V52.1586C0 58.6405 5.3098 63.9319 11.8142 63.9319Z" fill="#FE753F"/>
<rect x="13.967" y="35.2305" width="24.8062" height="28.7694" fill="#FE753F"/>
</g>
</svg>
