<svg width="11" height="15" viewBox="0 0 11 15" fill="none" xmlns="http://www.w3.org/2000/svg">
<g opacity="0.7">
<path d="M10.4672 3.16023C10.0669 2.27357 9.43292 1.51251 8.63319 0.958568C7.83346 0.404625 6.8981 0.0786712 5.9273 0.0156189C5.64307 -0.0052063 5.3577 -0.0052063 5.07347 0.0156189C4.10267 0.0786712 3.16731 0.404625 2.36758 0.958568C1.56785 1.51251 0.933873 2.27357 0.533559 3.16023C0.103591 4.08409 -0.0714897 5.10611 0.0264605 6.1204C0.124411 7.13469 0.491828 8.10433 1.09063 8.92883L5.07867 14.3642C5.12729 14.4304 5.19079 14.4842 5.26405 14.5213C5.33731 14.5584 5.41827 14.5777 5.50038 14.5777C5.5825 14.5777 5.66346 14.5584 5.73672 14.5213C5.80998 14.4842 5.87348 14.4304 5.9221 14.3642L9.91013 8.92883C10.5089 8.10433 10.8764 7.13469 10.9743 6.1204C11.0723 5.10611 10.8972 4.08409 10.4672 3.16023ZM5.50038 7.15103C5.16724 7.15103 4.84158 7.05224 4.56458 6.86716C4.28758 6.68208 4.07169 6.41901 3.9442 6.11122C3.81671 5.80344 3.78336 5.46476 3.84835 5.13802C3.91334 4.81128 4.07377 4.51115 4.30933 4.27558C4.5449 4.04001 4.84503 3.87959 5.17177 3.8146C5.49852 3.74961 5.83719 3.78296 6.14498 3.91045C6.45276 4.03794 6.71583 4.25383 6.90091 4.53083C7.086 4.80783 7.18478 5.13349 7.18478 5.46663C7.18491 5.68787 7.14144 5.90696 7.05683 6.11138C6.97223 6.3158 6.84816 6.50154 6.69173 6.65797C6.53529 6.81441 6.34955 6.93848 6.14513 7.02308C5.94071 7.10768 5.72162 7.15116 5.50038 7.15103Z" fill="#030A1B"/>
</g>
</svg>
