<svg width="12" height="12" viewBox="0 0 12 12" fill="none" xmlns="http://www.w3.org/2000/svg">
<g clip-path="url(#clip0_1_149)">
<path d="M10 0H2C1.46957 0 0.960859 0.210714 0.585786 0.585786C0.210714 0.960859 0 1.46957 0 2L0 10C0 10.5304 0.210714 11.0391 0.585786 11.4142C0.960859 11.7893 1.46957 12 2 12H10C10.5304 12 11.0391 11.7893 11.4142 11.4142C11.7893 11.0391 12 10.5304 12 10V2C12 1.46957 11.7893 0.960859 11.4142 0.585786C11.0391 0.210714 10.5304 0 10 0V0ZM11 10C11 10.2652 10.8946 10.5196 10.7071 10.7071C10.5196 10.8946 10.2652 11 10 11H2C1.73478 11 1.48043 10.8946 1.29289 10.7071C1.10536 10.5196 1 10.2652 1 10V2C1 1.73478 1.10536 1.48043 1.29289 1.29289C1.48043 1.10536 1.73478 1 2 1H10C10.2652 1 10.5196 1.10536 10.7071 1.29289C10.8946 1.48043 11 1.73478 11 2V10Z" fill="white"/>
<path d="M5.99997 3C5.40663 3 4.82661 3.17595 4.33326 3.50559C3.83991 3.83524 3.4554 4.30377 3.22833 4.85195C3.00127 5.40013 2.94186 6.00333 3.05761 6.58527C3.17337 7.16721 3.45909 7.70176 3.87865 8.12132C4.29821 8.54088 4.83276 8.8266 5.4147 8.94236C5.99664 9.05811 6.59984 8.9987 7.14802 8.77164C7.6962 8.54458 8.16474 8.16006 8.49438 7.66671C8.82402 7.17336 8.99997 6.59334 8.99997 6C8.99997 5.20435 8.6839 4.44129 8.12129 3.87868C7.55868 3.31607 6.79562 3 5.99997 3ZM5.99997 8C5.60441 8 5.21773 7.8827 4.88883 7.66294C4.55993 7.44318 4.30359 7.13082 4.15221 6.76537C4.00084 6.39992 3.96123 5.99778 4.0384 5.60982C4.11557 5.22186 4.30605 4.86549 4.58576 4.58579C4.86546 4.30608 5.22183 4.1156 5.60979 4.03843C5.99775 3.96126 6.39989 4.00087 6.76534 4.15224C7.13079 4.30362 7.44315 4.55996 7.66291 4.88886C7.88267 5.21776 7.99997 5.60444 7.99997 6C7.99997 6.53043 7.78926 7.03914 7.41419 7.41421C7.03911 7.78929 6.5304 8 5.99997 8Z" fill="white"/>
<path d="M9.25003 3.5C9.66424 3.5 10 3.16421 10 2.75C10 2.33579 9.66424 2 9.25003 2C8.83582 2 8.50003 2.33579 8.50003 2.75C8.50003 3.16421 8.83582 3.5 9.25003 3.5Z" fill="white"/>
</g>
<defs>
<clipPath id="clip0_1_149">
<rect width="12" height="12" fill="white"/>
</clipPath>
</defs>
</svg>
