<svg width="20" height="21" viewBox="0 0 20 21" fill="none" xmlns="http://www.w3.org/2000/svg">
<g filter="url(#filter0_d_1_132)">
<path d="M15.995 12.3687V12.3681H15.998V7.83192C15.998 5.61277 15.5346 3.90332 13.018 3.90332C11.8082 3.90332 10.9964 4.58772 10.6649 5.23656H10.6299V4.1105H8.24384V12.3681H10.7284V8.27926C10.7284 7.20267 10.9264 6.16164 12.2197 6.16164C13.494 6.16164 13.513 7.39026 13.513 8.34832V12.3687H15.995Z" fill="white"/>
<path d="M4.19861 4.11133H6.68619V12.3687H4.19861V4.11133Z" fill="white"/>
<path d="M5.44077 0C4.64539 0 4 0.665422 4 1.48547C4 2.30552 4.64539 2.98486 5.44077 2.98486C6.23614 2.98486 6.88153 2.30552 6.88153 1.48547C6.88103 0.665422 6.23564 0 5.44077 0V0Z" fill="white"/>
</g>
<defs>
<filter id="filter0_d_1_132" x="0" y="0" width="19.998" height="20.3687" filterUnits="userSpaceOnUse" color-interpolation-filters="sRGB">
<feFlood flood-opacity="0" result="BackgroundImageFix"/>
<feColorMatrix in="SourceAlpha" type="matrix" values="0 0 0 0 0 0 0 0 0 0 0 0 0 0 0 0 0 0 127 0" result="hardAlpha"/>
<feOffset dy="4"/>
<feGaussianBlur stdDeviation="2"/>
<feComposite in2="hardAlpha" operator="out"/>
<feColorMatrix type="matrix" values="0 0 0 0 0 0 0 0 0 0 0 0 0 0 0 0 0 0 0.25 0"/>
<feBlend mode="normal" in2="BackgroundImageFix" result="effect1_dropShadow_1_132"/>
<feBlend mode="normal" in="SourceGraphic" in2="effect1_dropShadow_1_132" result="shape"/>
</filter>
</defs>
</svg>
