<svg width="14" height="14" viewBox="0 0 14 14" fill="none" xmlns="http://www.w3.org/2000/svg">
<g clip-path="url(#clip0_1_138)">
<path d="M14 2.65913C13.4794 2.8875 12.9246 3.03887 12.3462 3.11237C12.9412 2.75712 13.3954 2.19887 13.6089 1.526C13.0541 1.85675 12.4416 2.09038 11.7889 2.22075C11.2621 1.65988 10.5114 1.3125 9.69238 1.3125C8.10337 1.3125 6.82412 2.60225 6.82412 4.18338C6.82412 4.41088 6.84338 4.62962 6.89062 4.83787C4.5045 4.7215 2.39313 3.57788 0.97475 1.83575C0.727125 2.26538 0.581875 2.75713 0.581875 3.2865C0.581875 4.2805 1.09375 5.16162 1.85675 5.67175C1.39562 5.663 0.94325 5.52913 0.56 5.31825C0.56 5.327 0.56 5.33838 0.56 5.34975C0.56 6.7445 1.55487 7.903 2.8595 8.16988C2.62587 8.23375 2.37125 8.26437 2.107 8.26437C1.92325 8.26437 1.73775 8.25387 1.56362 8.21537C1.9355 9.352 2.99075 10.1876 4.2455 10.2148C3.269 10.9786 2.02912 11.4389 0.686875 11.4389C0.4515 11.4389 0.22575 11.4284 0 11.3995C1.27137 12.2194 2.77813 12.6875 4.403 12.6875C9.6845 12.6875 12.572 8.3125 12.572 4.52025C12.572 4.39337 12.5676 4.27087 12.5615 4.14925C13.1311 3.745 13.6097 3.24013 14 2.65913Z" fill="white"/>
</g>
<defs>
<clipPath id="clip0_1_138">
<rect width="14" height="14" fill="white"/>
</clipPath>
</defs>
</svg>
