<svg width="14" height="10" viewBox="0 0 14 10" fill="none" xmlns="http://www.w3.org/2000/svg">
<path d="M11.6308 0H2.36923C1.74087 0 1.13825 0.257539 0.693931 0.715961C0.249615 1.17438 0 1.79614 0 2.44444V7.55556C0 8.20386 0.249615 8.82562 0.693931 9.28404C1.13825 9.74246 1.74087 10 2.36923 10H11.6308C12.2591 10 12.8618 9.74246 13.3061 9.28404C13.7504 8.82562 14 8.20386 14 7.55556V2.44444C14 1.79614 13.7504 1.17438 13.3061 0.715961C12.8618 0.257539 12.2591 0 11.6308 0ZM9.74185 5.09778L5.54185 7.32C5.52549 7.32874 5.50724 7.33301 5.48884 7.3324C5.47043 7.33179 5.45248 7.32631 5.43671 7.31651C5.42094 7.3067 5.40787 7.29288 5.39875 7.27637C5.38963 7.25987 5.38476 7.24122 5.38462 7.22222V2.77778C5.38476 2.75878 5.38963 2.74013 5.39875 2.72363C5.40787 2.70712 5.42094 2.6933 5.43671 2.68349C5.45248 2.67369 5.47043 2.66821 5.48884 2.6676C5.50724 2.66699 5.52549 2.67126 5.54185 2.68L9.74185 4.90222C9.75949 4.91155 9.77429 4.92571 9.78463 4.94316C9.79496 4.96061 9.80044 4.98066 9.80044 5.00111C9.80044 5.02156 9.79496 5.04161 9.78463 5.05906C9.77429 5.07651 9.75949 5.09068 9.74185 5.1V5.09778Z" fill="white"/>
</svg>
